<?xml version="1.0" encoding="UTF-8"?><svg xmlns="http://www.w3.org/2000/svg" xmlns:xlink="http://www.w3.org/1999/xlink" width="375pt" zoomAndPan="magnify" viewBox="0 0 375 374.999991" height="374.999991pt" preserveAspectRatio="xMidYMid meet" version="1.2"><defs><g/><clipPath xml:id="clip1" id="clip1"><path d="M 194 101 L 224 101 L 224 129 L 194 129 Z M 194 101 "/></clipPath><clipPath xml:id="clip2" id="clip2"><path d="M 157.039062 88.550781 L 226.316406 105.195312 L 209.671875 174.472656 L 140.394531 157.828125 Z M 157.039062 88.550781 "/></clipPath><clipPath xml:id="clip3" id="clip3"><path d="M 157.039062 88.550781 L 226.316406 105.195312 L 209.671875 174.472656 L 140.394531 157.828125 Z M 157.039062 88.550781 "/></clipPath><clipPath xml:id="clip4" id="clip4"><path d="M 141 111 L 207 111 L 207 158 L 141 158 Z M 141 111 "/></clipPath><clipPath xml:id="clip5" id="clip5"><path d="M 157.039062 88.550781 L 226.316406 105.195312 L 209.671875 174.472656 L 140.394531 157.828125 Z M 157.039062 88.550781 "/></clipPath><clipPath xml:id="clip6" id="clip6"><path d="M 157.039062 88.550781 L 226.316406 105.195312 L 209.671875 174.472656 L 140.394531 157.828125 Z M 157.039062 88.550781 "/></clipPath><clipPath xml:id="clip7" id="clip7"><path d="M 160 112 L 193 112 L 193 155 L 160 155 Z M 160 112 "/></clipPath><clipPath xml:id="clip8" id="clip8"><path d="M 157.039062 88.550781 L 226.316406 105.195312 L 209.671875 174.472656 L 140.394531 157.828125 Z M 157.039062 88.550781 "/></clipPath><clipPath xml:id="clip9" id="clip9"><path d="M 157.039062 88.550781 L 226.316406 105.195312 L 209.671875 174.472656 L 140.394531 157.828125 Z M 157.039062 88.550781 "/></clipPath></defs><g xml:id="surface1" id="surface1"><rect x="0" width="375" y="0" height="374.999991" style="fill:rgb(100%,100%,100%);fill-opacity:1;stroke:none;"/><rect x="0" width="375" y="0" height="374.999991" style="fill:rgb(100%,100%,100%);fill-opacity:1;stroke:none;"/><g style="fill:rgb(45.489502%,63.919067%,13.328552%);fill-opacity:1;"><g transform="translate(113.742185, 211.478878)"><path style="stroke:none;" d="M 3.71875 0 L 1.9375 0 C 1.664062 0 1.53125 -0.125 1.53125 -0.375 L 1.53125 -7.828125 C 1.53125 -8.097656 1.664062 -8.234375 1.9375 -8.234375 L 3.9375 -8.234375 C 4.195312 -8.234375 4.328125 -8.097656 4.328125 -7.828125 L 4.328125 -7.15625 C 4.328125 -6.75 4.566406 -6.210938 5.046875 -5.546875 C 5.535156 -4.878906 6.023438 -4.332031 6.515625 -3.90625 C 7.003906 -3.488281 7.65625 -3.125 8.46875 -2.8125 C 9.289062 -2.507812 10.175781 -2.359375 11.125 -2.359375 C 12.757812 -2.359375 14.035156 -2.695312 14.953125 -3.375 C 15.878906 -4.050781 16.34375 -4.992188 16.34375 -6.203125 C 16.34375 -6.898438 16.082031 -7.5 15.5625 -8 C 15.039062 -8.5 14.367188 -8.894531 13.546875 -9.1875 C 12.722656 -9.488281 11.804688 -9.765625 10.796875 -10.015625 C 9.785156 -10.265625 8.773438 -10.554688 7.765625 -10.890625 C 6.765625 -11.222656 5.847656 -11.613281 5.015625 -12.0625 C 4.191406 -12.519531 3.519531 -13.15625 3 -13.96875 C 2.476562 -14.789062 2.21875 -15.753906 2.21875 -16.859375 C 2.21875 -18.628906 2.890625 -20.097656 4.234375 -21.265625 C 5.585938 -22.429688 7.398438 -23.015625 9.671875 -23.015625 C 12.523438 -23.015625 14.625 -22.179688 15.96875 -20.515625 L 15.90625 -22.484375 C 15.90625 -22.734375 16.039062 -22.859375 16.3125 -22.859375 L 18.09375 -22.859375 C 18.34375 -22.859375 18.46875 -22.734375 18.46875 -22.484375 L 18.46875 -15.546875 C 18.46875 -15.296875 18.34375 -15.171875 18.09375 -15.171875 L 16.09375 -15.171875 C 15.832031 -15.171875 15.703125 -15.296875 15.703125 -15.546875 L 15.703125 -16.4375 C 15.703125 -17.3125 15.210938 -18.191406 14.234375 -19.078125 C 13.265625 -19.960938 11.835938 -20.40625 9.953125 -20.40625 C 8.554688 -20.40625 7.425781 -20.070312 6.5625 -19.40625 C 5.707031 -18.738281 5.28125 -17.890625 5.28125 -16.859375 C 5.28125 -16.109375 5.546875 -15.46875 6.078125 -14.9375 C 6.609375 -14.414062 7.296875 -13.992188 8.140625 -13.671875 C 8.984375 -13.359375 9.914062 -13.066406 10.9375 -12.796875 C 11.957031 -12.535156 12.972656 -12.242188 13.984375 -11.921875 C 15.003906 -11.609375 15.9375 -11.226562 16.78125 -10.78125 C 17.632812 -10.332031 18.328125 -9.722656 18.859375 -8.953125 C 19.390625 -8.179688 19.65625 -7.265625 19.65625 -6.203125 C 19.65625 -4.335938 18.984375 -2.800781 17.640625 -1.59375 C 16.304688 -0.382812 14.316406 0.21875 11.671875 0.21875 C 9.722656 0.21875 8.109375 -0.171875 6.828125 -0.953125 C 5.554688 -1.734375 4.632812 -2.582031 4.0625 -3.5 L 4.109375 -0.375 C 4.109375 -0.125 3.976562 0 3.71875 0 Z M 3.71875 0 "/></g></g><g style="fill:rgb(45.489502%,63.919067%,13.328552%);fill-opacity:1;"><g transform="translate(134.916282, 211.478878)"><path style="stroke:none;" d="M 18.765625 -8.265625 L 18.765625 -20.453125 L 16.3125 -20.453125 C 16.0625 -20.453125 15.9375 -20.578125 15.9375 -20.828125 L 15.9375 -22.453125 C 15.9375 -22.703125 16.0625 -22.828125 16.3125 -22.828125 L 23.96875 -22.828125 C 24.226562 -22.828125 24.359375 -22.703125 24.359375 -22.453125 L 24.359375 -20.828125 C 24.359375 -20.578125 24.226562 -20.453125 23.96875 -20.453125 L 21.53125 -20.453125 L 21.53125 -8.546875 C 21.53125 -5.691406 20.78125 -3.515625 19.28125 -2.015625 C 17.789062 -0.523438 15.679688 0.21875 12.953125 0.21875 C 10.234375 0.21875 8.117188 -0.523438 6.609375 -2.015625 C 5.109375 -3.515625 4.359375 -5.691406 4.359375 -8.546875 L 4.359375 -20.453125 L 1.9375 -20.453125 C 1.664062 -20.453125 1.53125 -20.578125 1.53125 -20.828125 L 1.53125 -22.453125 C 1.53125 -22.703125 1.664062 -22.828125 1.9375 -22.828125 L 9.578125 -22.828125 C 9.847656 -22.828125 9.984375 -22.703125 9.984375 -22.453125 L 9.984375 -20.828125 C 9.984375 -20.578125 9.847656 -20.453125 9.578125 -20.453125 L 7.125 -20.453125 L 7.125 -8.453125 C 7.125 -4.390625 9.070312 -2.359375 12.96875 -2.359375 C 14.96875 -2.359375 16.429688 -2.878906 17.359375 -3.921875 C 18.296875 -4.972656 18.765625 -6.421875 18.765625 -8.265625 Z M 18.765625 -8.265625 "/></g></g><g style="fill:rgb(45.489502%,63.919067%,13.328552%);fill-opacity:1;"><g transform="translate(160.795732, 211.478878)"><path style="stroke:none;" d="M 21.296875 0 L 19.59375 0 C 19.1875 0 18.863281 -0.078125 18.625 -0.234375 C 18.394531 -0.398438 18.175781 -0.648438 17.96875 -0.984375 L 8.78125 -15.359375 L 7.1875 -18.03125 L 7.125 -18.03125 L 7.125 -2.390625 L 9.578125 -2.390625 C 9.847656 -2.390625 9.984375 -2.257812 9.984375 -2 L 9.984375 -0.375 C 9.984375 -0.125 9.847656 0 9.578125 0 L 1.9375 0 C 1.664062 0 1.53125 -0.125 1.53125 -0.375 L 1.53125 -2 C 1.53125 -2.257812 1.664062 -2.390625 1.9375 -2.390625 L 4.359375 -2.390625 L 4.359375 -20.453125 L 1.9375 -20.453125 C 1.664062 -20.453125 1.53125 -20.578125 1.53125 -20.828125 L 1.53125 -22.453125 C 1.53125 -22.703125 1.664062 -22.828125 1.9375 -22.828125 L 6.390625 -22.828125 C 7.003906 -22.828125 7.546875 -22.46875 8.015625 -21.75 L 17.078125 -7.5625 L 18.890625 -4.484375 L 18.953125 -4.484375 L 18.953125 -20.453125 L 16.5 -20.453125 C 16.25 -20.453125 16.125 -20.578125 16.125 -20.828125 L 16.125 -22.453125 C 16.125 -22.703125 16.25 -22.828125 16.5 -22.828125 L 24.171875 -22.828125 C 24.421875 -22.828125 24.546875 -22.703125 24.546875 -22.453125 L 24.546875 -20.828125 C 24.546875 -20.578125 24.421875 -20.453125 24.171875 -20.453125 L 21.71875 -20.453125 L 21.71875 -0.375 C 21.71875 -0.125 21.578125 0 21.296875 0 Z M 21.296875 0 "/></g></g><g style="fill:rgb(45.489502%,63.919067%,13.328552%);fill-opacity:1;"><g transform="translate(186.865944, 211.478878)"><path style="stroke:none;" d="M 10.875 0 L 1.75 0 C 1.5 0 1.375 -0.125 1.375 -0.375 L 1.375 -2 C 1.375 -2.257812 1.5 -2.390625 1.75 -2.390625 L 4.203125 -2.390625 L 4.203125 -20.453125 L 1.75 -20.453125 C 1.5 -20.453125 1.375 -20.578125 1.375 -20.828125 L 1.375 -22.453125 C 1.375 -22.703125 1.5 -22.828125 1.75 -22.828125 L 10.328125 -22.828125 C 13.847656 -22.828125 16.644531 -21.8125 18.71875 -19.78125 C 20.800781 -17.757812 21.84375 -14.976562 21.84375 -11.4375 C 21.84375 -7.90625 20.859375 -5.113281 18.890625 -3.0625 C 16.921875 -1.019531 14.25 0 10.875 0 Z M 6.96875 -2.390625 L 10.109375 -2.390625 C 16.003906 -2.429688 18.953125 -5.429688 18.953125 -11.390625 C 18.953125 -14.242188 18.191406 -16.46875 16.671875 -18.0625 C 15.160156 -19.65625 12.941406 -20.453125 10.015625 -20.453125 L 6.96875 -20.453125 Z M 6.96875 -2.390625 "/></g></g><g style="fill:rgb(45.489502%,63.919067%,13.328552%);fill-opacity:1;"><g transform="translate(210.392718, 211.478878)"><path style="stroke:none;" d="M 24.421875 0 L 17.234375 0 C 16.984375 0 16.859375 -0.125 16.859375 -0.375 L 16.859375 -2 C 16.859375 -2.257812 16.984375 -2.390625 17.234375 -2.390625 L 19.453125 -2.390625 L 17.390625 -7.890625 L 8.515625 -7.890625 L 6.453125 -2.390625 L 8.6875 -2.390625 C 8.9375 -2.390625 9.0625 -2.257812 9.0625 -2 L 9.0625 -0.375 C 9.0625 -0.125 8.9375 0 8.6875 0 L 1.53125 0 C 1.269531 0 1.140625 -0.125 1.140625 -0.375 L 1.140625 -2 C 1.140625 -2.257812 1.269531 -2.390625 1.53125 -2.390625 L 3.65625 -2.390625 L 10.5 -20.453125 L 8.78125 -20.453125 C 8.5 -20.453125 8.359375 -20.578125 8.359375 -20.828125 L 8.359375 -22.453125 C 8.359375 -22.703125 8.5 -22.828125 8.78125 -22.828125 L 13.09375 -22.828125 C 13.601562 -22.828125 13.988281 -22.71875 14.25 -22.5 C 14.519531 -22.289062 14.75 -21.945312 14.9375 -21.46875 L 22.265625 -2.390625 L 24.421875 -2.390625 C 24.671875 -2.390625 24.796875 -2.257812 24.796875 -2 L 24.796875 -0.375 C 24.796875 -0.125 24.671875 0 24.421875 0 Z M 16.53125 -10.078125 L 13 -19.515625 L 12.90625 -19.515625 L 9.34375 -10.078125 Z M 16.53125 -10.078125 "/></g></g><g style="fill:rgb(45.489502%,63.919067%,13.328552%);fill-opacity:1;"><g transform="translate(237.130577, 211.478878)"><path style="stroke:none;" d="M 15.90625 0 L 8.234375 0 C 7.984375 0 7.859375 -0.125 7.859375 -0.375 L 7.859375 -2 C 7.859375 -2.257812 7.984375 -2.390625 8.234375 -2.390625 L 10.6875 -2.390625 L 10.6875 -9.1875 L 9.40625 -11.390625 C 6.65625 -16.285156 4.890625 -19.304688 4.109375 -20.453125 L 1.9375 -20.453125 C 1.664062 -20.453125 1.53125 -20.578125 1.53125 -20.828125 L 1.53125 -22.453125 C 1.53125 -22.703125 1.664062 -22.828125 1.9375 -22.828125 L 9.09375 -22.828125 C 9.34375 -22.828125 9.46875 -22.703125 9.46875 -22.453125 L 9.46875 -20.828125 C 9.46875 -20.578125 9.34375 -20.453125 9.09375 -20.453125 L 7 -20.453125 L 11.984375 -11.609375 L 12.171875 -11.609375 L 17.140625 -20.453125 L 15.046875 -20.453125 C 14.785156 -20.453125 14.65625 -20.578125 14.65625 -20.828125 L 14.65625 -22.453125 C 14.65625 -22.703125 14.785156 -22.828125 15.046875 -22.828125 L 22.21875 -22.828125 C 22.476562 -22.828125 22.609375 -22.703125 22.609375 -22.453125 L 22.609375 -20.828125 C 22.609375 -20.578125 22.476562 -20.453125 22.21875 -20.453125 L 20.03125 -20.453125 C 18.988281 -18.921875 17.632812 -16.671875 15.96875 -13.703125 C 14.3125 -10.734375 13.472656 -9.238281 13.453125 -9.21875 L 13.453125 -2.390625 L 15.90625 -2.390625 C 16.15625 -2.390625 16.28125 -2.257812 16.28125 -2 L 16.28125 -0.375 C 16.28125 -0.125 16.15625 0 15.90625 0 Z M 15.90625 0 "/></g></g><g style="fill:rgb(45.489502%,63.919067%,13.328552%);fill-opacity:1;"><g transform="translate(107.496091, 245.978876)"><path style="stroke:none;" d="M 23.65625 -11.515625 C 23.65625 -8.035156 22.609375 -5.207031 20.515625 -3.03125 C 18.429688 -0.863281 15.804688 0.21875 12.640625 0.21875 C 9.472656 0.21875 6.828125 -0.875 4.703125 -3.0625 C 2.585938 -5.257812 1.53125 -8.085938 1.53125 -11.546875 C 1.53125 -15.015625 2.617188 -17.789062 4.796875 -19.875 C 6.984375 -21.96875 9.59375 -23.015625 12.625 -23.015625 C 15.65625 -23.015625 18.25 -21.96875 20.40625 -19.875 C 22.570312 -17.789062 23.65625 -15.003906 23.65625 -11.515625 Z M 6.9375 -4.78125 C 8.5625 -3.164062 10.453125 -2.359375 12.609375 -2.359375 C 14.773438 -2.359375 16.664062 -3.164062 18.28125 -4.78125 C 19.894531 -6.40625 20.703125 -8.628906 20.703125 -11.453125 C 20.703125 -14.285156 19.878906 -16.503906 18.234375 -18.109375 C 16.585938 -19.710938 14.710938 -20.515625 12.609375 -20.515625 C 10.515625 -20.515625 8.640625 -19.710938 6.984375 -18.109375 C 5.335938 -16.503906 4.515625 -14.285156 4.515625 -11.453125 C 4.515625 -8.628906 5.320312 -6.40625 6.9375 -4.78125 Z M 6.9375 -4.78125 "/></g></g><g style="fill:rgb(45.489502%,63.919067%,13.328552%);fill-opacity:1;"><g transform="translate(132.707893, 245.978876)"><path style="stroke:none;" d="M 20.828125 0 L 18.0625 0 C 17.300781 0 16.664062 -0.507812 16.15625 -1.53125 L 13.15625 -7.59375 C 12.90625 -8.125 12.632812 -8.515625 12.34375 -8.765625 C 12.0625 -9.023438 11.664062 -9.164062 11.15625 -9.1875 L 7.125 -9.1875 L 7.125 -2.390625 L 9.984375 -2.390625 C 10.234375 -2.390625 10.359375 -2.257812 10.359375 -2 L 10.359375 -0.375 C 10.359375 -0.125 10.234375 0 9.984375 0 L 1.9375 0 C 1.664062 0 1.53125 -0.125 1.53125 -0.375 L 1.53125 -2 C 1.53125 -2.257812 1.664062 -2.390625 1.9375 -2.390625 L 4.359375 -2.390625 L 4.359375 -20.453125 L 1.9375 -20.453125 C 1.664062 -20.453125 1.53125 -20.578125 1.53125 -20.828125 L 1.53125 -22.453125 C 1.53125 -22.703125 1.664062 -22.828125 1.9375 -22.828125 L 11.734375 -22.828125 C 14.003906 -22.828125 15.847656 -22.226562 17.265625 -21.03125 C 18.679688 -19.832031 19.390625 -18.144531 19.390625 -15.96875 C 19.390625 -12.632812 17.832031 -10.554688 14.71875 -9.734375 C 15.125 -9.410156 15.625 -8.695312 16.21875 -7.59375 L 18.890625 -2.390625 L 20.828125 -2.390625 C 21.078125 -2.390625 21.203125 -2.257812 21.203125 -2 L 21.203125 -0.375 C 21.203125 -0.125 21.078125 0 20.828125 0 Z M 7.125 -11.453125 L 11.1875 -11.453125 C 14.789062 -11.453125 16.59375 -12.921875 16.59375 -15.859375 C 16.59375 -18.921875 14.789062 -20.453125 11.1875 -20.453125 L 7.125 -20.453125 Z M 7.125 -11.453125 "/></g></g><g style="fill:rgb(45.489502%,63.919067%,13.328552%);fill-opacity:1;"><g transform="translate(155.43984, 245.978876)"><path style="stroke:none;" d="M 21.9375 0 L 20.25 0 C 19.976562 0 19.84375 -0.125 19.84375 -0.375 L 19.875 -2.578125 C 18.007812 -0.710938 15.523438 0.21875 12.421875 0.21875 C 9.316406 0.21875 6.722656 -0.859375 4.640625 -3.015625 C 2.566406 -5.179688 1.53125 -8.023438 1.53125 -11.546875 C 1.53125 -13.898438 2.050781 -15.960938 3.09375 -17.734375 C 4.144531 -19.515625 5.484375 -20.835938 7.109375 -21.703125 C 8.734375 -22.578125 10.488281 -23.015625 12.375 -23.015625 C 15.613281 -23.015625 17.941406 -22.007812 19.359375 -20 L 19.328125 -22.453125 C 19.285156 -22.703125 19.414062 -22.828125 19.71875 -22.828125 L 21.5 -22.828125 C 21.769531 -22.828125 21.90625 -22.703125 21.90625 -22.453125 L 21.90625 -15.90625 C 21.90625 -15.644531 21.769531 -15.515625 21.5 -15.515625 L 19.484375 -15.515625 C 19.234375 -15.515625 19.109375 -15.644531 19.109375 -15.90625 L 19.109375 -16.28125 C 19.109375 -17.207031 18.46875 -18.125 17.1875 -19.03125 C 15.90625 -19.945312 14.265625 -20.40625 12.265625 -20.40625 C 10.273438 -20.40625 8.476562 -19.582031 6.875 -17.9375 C 5.28125 -16.300781 4.484375 -14.109375 4.484375 -11.359375 C 4.484375 -8.617188 5.285156 -6.445312 6.890625 -4.84375 C 8.503906 -3.25 10.304688 -2.453125 12.296875 -2.453125 C 14.296875 -2.453125 15.875 -2.769531 17.03125 -3.40625 C 18.1875 -4.039062 19.050781 -4.789062 19.625 -5.65625 L 19.625 -8.140625 L 13.703125 -8.140625 C 13.453125 -8.140625 13.328125 -8.273438 13.328125 -8.546875 L 13.328125 -10.015625 C 13.328125 -10.265625 13.453125 -10.390625 13.703125 -10.390625 L 21.9375 -10.390625 C 22.195312 -10.390625 22.328125 -10.265625 22.328125 -10.015625 L 22.328125 -0.375 C 22.328125 -0.125 22.195312 0 21.9375 0 Z M 21.9375 0 "/></g></g><g style="fill:rgb(45.489502%,63.919067%,13.328552%);fill-opacity:1;"><g transform="translate(179.284542, 245.978876)"><path style="stroke:none;" d="M 24.421875 0 L 17.234375 0 C 16.984375 0 16.859375 -0.125 16.859375 -0.375 L 16.859375 -2 C 16.859375 -2.257812 16.984375 -2.390625 17.234375 -2.390625 L 19.453125 -2.390625 L 17.390625 -7.890625 L 8.515625 -7.890625 L 6.453125 -2.390625 L 8.6875 -2.390625 C 8.9375 -2.390625 9.0625 -2.257812 9.0625 -2 L 9.0625 -0.375 C 9.0625 -0.125 8.9375 0 8.6875 0 L 1.53125 0 C 1.269531 0 1.140625 -0.125 1.140625 -0.375 L 1.140625 -2 C 1.140625 -2.257812 1.269531 -2.390625 1.53125 -2.390625 L 3.65625 -2.390625 L 10.5 -20.453125 L 8.78125 -20.453125 C 8.5 -20.453125 8.359375 -20.578125 8.359375 -20.828125 L 8.359375 -22.453125 C 8.359375 -22.703125 8.5 -22.828125 8.78125 -22.828125 L 13.09375 -22.828125 C 13.601562 -22.828125 13.988281 -22.71875 14.25 -22.5 C 14.519531 -22.289062 14.75 -21.945312 14.9375 -21.46875 L 22.265625 -2.390625 L 24.421875 -2.390625 C 24.671875 -2.390625 24.796875 -2.257812 24.796875 -2 L 24.796875 -0.375 C 24.796875 -0.125 24.671875 0 24.421875 0 Z M 16.53125 -10.078125 L 13 -19.515625 L 12.90625 -19.515625 L 9.34375 -10.078125 Z M 16.53125 -10.078125 "/></g></g><g style="fill:rgb(45.489502%,63.919067%,13.328552%);fill-opacity:1;"><g transform="translate(206.022402, 245.978876)"><path style="stroke:none;" d="M 21.296875 0 L 19.59375 0 C 19.1875 0 18.863281 -0.078125 18.625 -0.234375 C 18.394531 -0.398438 18.175781 -0.648438 17.96875 -0.984375 L 8.78125 -15.359375 L 7.1875 -18.03125 L 7.125 -18.03125 L 7.125 -2.390625 L 9.578125 -2.390625 C 9.847656 -2.390625 9.984375 -2.257812 9.984375 -2 L 9.984375 -0.375 C 9.984375 -0.125 9.847656 0 9.578125 0 L 1.9375 0 C 1.664062 0 1.53125 -0.125 1.53125 -0.375 L 1.53125 -2 C 1.53125 -2.257812 1.664062 -2.390625 1.9375 -2.390625 L 4.359375 -2.390625 L 4.359375 -20.453125 L 1.9375 -20.453125 C 1.664062 -20.453125 1.53125 -20.578125 1.53125 -20.828125 L 1.53125 -22.453125 C 1.53125 -22.703125 1.664062 -22.828125 1.9375 -22.828125 L 6.390625 -22.828125 C 7.003906 -22.828125 7.546875 -22.46875 8.015625 -21.75 L 17.078125 -7.5625 L 18.890625 -4.484375 L 18.953125 -4.484375 L 18.953125 -20.453125 L 16.5 -20.453125 C 16.25 -20.453125 16.125 -20.578125 16.125 -20.828125 L 16.125 -22.453125 C 16.125 -22.703125 16.25 -22.828125 16.5 -22.828125 L 24.171875 -22.828125 C 24.421875 -22.828125 24.546875 -22.703125 24.546875 -22.453125 L 24.546875 -20.828125 C 24.546875 -20.578125 24.421875 -20.453125 24.171875 -20.453125 L 21.71875 -20.453125 L 21.71875 -0.375 C 21.71875 -0.125 21.578125 0 21.296875 0 Z M 21.296875 0 "/></g></g><g style="fill:rgb(45.489502%,63.919067%,13.328552%);fill-opacity:1;"><g transform="translate(232.092613, 245.978876)"><path style="stroke:none;" d="M 9.578125 0 L 1.9375 0 C 1.664062 0 1.53125 -0.125 1.53125 -0.375 L 1.53125 -2 C 1.53125 -2.257812 1.664062 -2.390625 1.9375 -2.390625 L 4.359375 -2.390625 L 4.359375 -20.453125 L 1.9375 -20.453125 C 1.664062 -20.453125 1.53125 -20.578125 1.53125 -20.828125 L 1.53125 -22.453125 C 1.53125 -22.703125 1.664062 -22.828125 1.9375 -22.828125 L 9.578125 -22.828125 C 9.847656 -22.828125 9.984375 -22.703125 9.984375 -22.453125 L 9.984375 -20.828125 C 9.984375 -20.578125 9.847656 -20.453125 9.578125 -20.453125 L 7.125 -20.453125 L 7.125 -2.390625 L 9.578125 -2.390625 C 9.847656 -2.390625 9.984375 -2.257812 9.984375 -2 L 9.984375 -0.375 C 9.984375 -0.125 9.847656 0 9.578125 0 Z M 9.578125 0 "/></g></g><g style="fill:rgb(45.489502%,63.919067%,13.328552%);fill-opacity:1;"><g transform="translate(243.601661, 245.978876)"><path style="stroke:none;" d="M 22.15625 -5.75 C 22.269531 -5.664062 22.328125 -5.566406 22.328125 -5.453125 C 22.328125 -5.335938 22.273438 -5.175781 22.171875 -4.96875 C 22.078125 -4.769531 21.921875 -4.503906 21.703125 -4.171875 C 21.484375 -3.847656 21.085938 -3.398438 20.515625 -2.828125 C 19.941406 -2.253906 19.3125 -1.757812 18.625 -1.34375 C 17.945312 -0.9375 17.050781 -0.570312 15.9375 -0.25 C 14.832031 0.0625 13.644531 0.21875 12.375 0.21875 C 9.28125 0.21875 6.695312 -0.859375 4.625 -3.015625 C 2.5625 -5.179688 1.53125 -8.015625 1.53125 -11.515625 C 1.53125 -15.023438 2.570312 -17.816406 4.65625 -19.890625 C 6.75 -21.972656 9.265625 -23.015625 12.203125 -23.015625 C 15.492188 -23.015625 17.878906 -21.882812 19.359375 -19.625 L 19.328125 -22.453125 C 19.285156 -22.703125 19.414062 -22.828125 19.71875 -22.828125 L 21.5 -22.828125 C 21.769531 -22.828125 21.90625 -22.703125 21.90625 -22.453125 L 21.90625 -15.515625 C 21.90625 -15.242188 21.769531 -15.109375 21.5 -15.109375 L 19.484375 -15.109375 C 19.234375 -15.109375 19.109375 -15.242188 19.109375 -15.515625 L 19.109375 -15.796875 C 19.109375 -16.773438 18.445312 -17.785156 17.125 -18.828125 C 15.800781 -19.878906 14.148438 -20.40625 12.171875 -20.40625 C 10.203125 -20.40625 8.425781 -19.625 6.84375 -18.0625 C 5.269531 -16.507812 4.484375 -14.304688 4.484375 -11.453125 C 4.484375 -8.609375 5.273438 -6.394531 6.859375 -4.8125 C 8.453125 -3.238281 10.320312 -2.453125 12.46875 -2.453125 C 14.78125 -2.453125 16.601562 -2.96875 17.9375 -4 C 18.96875 -4.8125 19.726562 -5.628906 20.21875 -6.453125 C 20.394531 -6.773438 20.597656 -6.835938 20.828125 -6.640625 Z M 22.15625 -5.75 "/></g></g><g style="fill:rgb(45.489502%,63.919067%,13.328552%);fill-opacity:1;"><g transform="translate(110.337876, 283.240705)"><path style="stroke:none;" d="M 6.796875 0 L 5.65625 0 C 5.320312 0 5.15625 -0.164062 5.15625 -0.5 L 5.15625 -3.640625 C 5.15625 -4.097656 5.039062 -4.453125 4.8125 -4.703125 C 4.59375 -4.960938 4.269531 -5.09375 3.84375 -5.09375 C 3.507812 -5.09375 3.257812 -5.039062 3.09375 -4.9375 C 2.925781 -4.84375 2.796875 -4.753906 2.703125 -4.671875 C 2.617188 -4.597656 2.546875 -4.523438 2.484375 -4.453125 C 2.390625 -4.328125 2.3125 -4.195312 2.25 -4.0625 L 2.25 -0.796875 L 2.890625 -0.796875 C 2.992188 -0.796875 3.046875 -0.75 3.046875 -0.65625 L 3.046875 -0.140625 C 3.046875 -0.046875 2.992188 0 2.890625 0 L 0.609375 0 C 0.503906 0 0.453125 -0.046875 0.453125 -0.140625 L 0.453125 -0.65625 C 0.453125 -0.75 0.503906 -0.796875 0.609375 -0.796875 L 1.265625 -0.796875 L 1.265625 -7.765625 L 0.609375 -7.765625 C 0.503906 -7.765625 0.453125 -7.8125 0.453125 -7.90625 L 0.453125 -8.421875 C 0.453125 -8.515625 0.503906 -8.5625 0.609375 -8.5625 L 2.109375 -8.5625 C 2.203125 -8.5625 2.25 -8.515625 2.25 -8.421875 L 2.25 -5.765625 C 2.25 -5.492188 2.234375 -5.25 2.203125 -5.03125 L 2.234375 -5.03125 C 2.617188 -5.644531 3.238281 -5.953125 4.09375 -5.953125 C 4.726562 -5.953125 5.222656 -5.765625 5.578125 -5.390625 C 5.929688 -5.015625 6.113281 -4.507812 6.125 -3.875 L 6.125 -0.796875 L 6.796875 -0.796875 C 6.898438 -0.796875 6.953125 -0.75 6.953125 -0.65625 L 6.953125 -0.140625 C 6.953125 -0.046875 6.898438 0 6.796875 0 Z M 6.796875 0 "/></g></g><g style="fill:rgb(45.489502%,63.919067%,13.328552%);fill-opacity:1;"><g transform="translate(117.738918, 283.240705)"><path style="stroke:none;" d="M 5.546875 -0.75 C 4.992188 -0.195312 4.285156 0.078125 3.421875 0.078125 C 2.554688 0.078125 1.84375 -0.195312 1.28125 -0.75 C 0.726562 -1.300781 0.453125 -2.035156 0.453125 -2.953125 C 0.453125 -3.867188 0.734375 -4.597656 1.296875 -5.140625 C 1.859375 -5.679688 2.566406 -5.953125 3.421875 -5.953125 C 4.273438 -5.953125 4.984375 -5.675781 5.546875 -5.125 C 6.109375 -4.582031 6.390625 -3.851562 6.390625 -2.9375 C 6.390625 -2.03125 6.109375 -1.300781 5.546875 -0.75 Z M 1.453125 -2.9375 C 1.453125 -2.289062 1.640625 -1.765625 2.015625 -1.359375 C 2.398438 -0.953125 2.867188 -0.75 3.421875 -0.75 C 3.972656 -0.75 4.441406 -0.953125 4.828125 -1.359375 C 5.210938 -1.765625 5.40625 -2.289062 5.40625 -2.9375 C 5.40625 -3.59375 5.210938 -4.117188 4.828125 -4.515625 C 4.441406 -4.910156 3.976562 -5.109375 3.4375 -5.109375 C 2.894531 -5.109375 2.425781 -4.910156 2.03125 -4.515625 C 1.644531 -4.117188 1.453125 -3.59375 1.453125 -2.9375 Z M 1.453125 -2.9375 "/></g></g><g style="fill:rgb(45.489502%,63.919067%,13.328552%);fill-opacity:1;"><g transform="translate(124.591743, 283.240705)"><path style="stroke:none;" d="M 10.484375 0 L 9.359375 0 C 9.171875 0 9.035156 -0.0351562 8.953125 -0.109375 C 8.867188 -0.179688 8.828125 -0.3125 8.828125 -0.5 L 8.828125 -3.640625 C 8.828125 -4.097656 8.71875 -4.453125 8.5 -4.703125 C 8.28125 -4.960938 7.957031 -5.09375 7.53125 -5.09375 C 6.90625 -5.09375 6.414062 -4.816406 6.0625 -4.265625 C 6.101562 -4.117188 6.125 -3.960938 6.125 -3.796875 L 6.125 -0.796875 L 6.796875 -0.796875 C 6.890625 -0.796875 6.9375 -0.75 6.9375 -0.65625 L 6.9375 -0.140625 C 6.9375 -0.046875 6.890625 0 6.796875 0 L 4.515625 0 C 4.410156 0 4.359375 -0.046875 4.359375 -0.140625 L 4.359375 -0.65625 C 4.359375 -0.75 4.410156 -0.796875 4.515625 -0.796875 L 5.15625 -0.796875 L 5.15625 -3.640625 C 5.15625 -4.097656 5.039062 -4.453125 4.8125 -4.703125 C 4.59375 -4.960938 4.269531 -5.09375 3.84375 -5.09375 C 3.507812 -5.09375 3.257812 -5.039062 3.09375 -4.9375 C 2.925781 -4.84375 2.796875 -4.753906 2.703125 -4.671875 C 2.617188 -4.597656 2.546875 -4.523438 2.484375 -4.453125 C 2.390625 -4.328125 2.3125 -4.195312 2.25 -4.0625 L 2.25 -0.796875 L 2.84375 -0.796875 C 2.9375 -0.796875 2.984375 -0.75 2.984375 -0.65625 L 2.984375 -0.140625 C 2.984375 -0.046875 2.9375 0 2.84375 0 L 0.609375 0 C 0.503906 0 0.453125 -0.046875 0.453125 -0.140625 L 0.453125 -0.65625 C 0.453125 -0.75 0.503906 -0.796875 0.609375 -0.796875 L 1.265625 -0.796875 L 1.265625 -5.0625 L 0.609375 -5.0625 C 0.503906 -5.0625 0.453125 -5.109375 0.453125 -5.203125 L 0.453125 -5.71875 C 0.453125 -5.8125 0.503906 -5.859375 0.609375 -5.859375 L 1.78125 -5.859375 C 1.914062 -5.859375 2.007812 -5.832031 2.0625 -5.78125 C 2.125 -5.726562 2.15625 -5.640625 2.15625 -5.515625 L 2.140625 -4.90625 L 2.171875 -4.90625 C 2.585938 -5.601562 3.226562 -5.953125 4.09375 -5.953125 C 4.96875 -5.953125 5.5625 -5.617188 5.875 -4.953125 C 6.332031 -5.617188 6.972656 -5.953125 7.796875 -5.953125 C 8.429688 -5.953125 8.925781 -5.765625 9.28125 -5.390625 C 9.632812 -5.015625 9.8125 -4.507812 9.8125 -3.875 L 9.828125 -0.796875 L 10.484375 -0.796875 C 10.585938 -0.796875 10.640625 -0.75 10.640625 -0.65625 L 10.640625 -0.140625 C 10.640625 -0.046875 10.585938 0 10.484375 0 Z M 10.484375 0 "/></g></g><g style="fill:rgb(45.489502%,63.919067%,13.328552%);fill-opacity:1;"><g transform="translate(135.68735, 283.240705)"><path style="stroke:none;" d="M 5.765625 -2.8125 L 1.46875 -2.8125 C 1.5 -2.15625 1.707031 -1.644531 2.09375 -1.28125 C 2.476562 -0.925781 2.910156 -0.75 3.390625 -0.75 C 3.878906 -0.75 4.296875 -0.851562 4.640625 -1.0625 C 4.984375 -1.269531 5.21875 -1.472656 5.34375 -1.671875 C 5.40625 -1.742188 5.476562 -1.753906 5.5625 -1.703125 L 5.875 -1.390625 C 5.925781 -1.335938 5.953125 -1.289062 5.953125 -1.25 C 5.953125 -1.21875 5.929688 -1.171875 5.890625 -1.109375 C 5.859375 -1.054688 5.785156 -0.96875 5.671875 -0.84375 C 5.566406 -0.726562 5.410156 -0.59375 5.203125 -0.4375 C 5.003906 -0.289062 4.742188 -0.164062 4.421875 -0.0625 C 4.097656 0.03125 3.753906 0.078125 3.390625 0.078125 C 2.554688 0.078125 1.859375 -0.191406 1.296875 -0.734375 C 0.734375 -1.285156 0.453125 -2.023438 0.453125 -2.953125 C 0.453125 -3.878906 0.726562 -4.609375 1.28125 -5.140625 C 1.84375 -5.679688 2.523438 -5.953125 3.328125 -5.953125 C 4.140625 -5.953125 4.773438 -5.691406 5.234375 -5.171875 C 5.691406 -4.648438 5.921875 -3.945312 5.921875 -3.0625 C 5.921875 -3.03125 5.921875 -3 5.921875 -2.96875 C 5.921875 -2.863281 5.867188 -2.8125 5.765625 -2.8125 Z M 4.9375 -3.546875 C 4.914062 -4.035156 4.757812 -4.425781 4.46875 -4.71875 C 4.1875 -5.007812 3.804688 -5.15625 3.328125 -5.15625 C 2.847656 -5.15625 2.4375 -5.019531 2.09375 -4.75 C 1.75 -4.476562 1.546875 -4.078125 1.484375 -3.546875 Z M 4.9375 -3.546875 "/></g></g><g style="fill:rgb(45.489502%,63.919067%,13.328552%);fill-opacity:1;"><g transform="translate(142.099211, 283.240705)"><path style="stroke:none;" d=""/></g></g><g style="fill:rgb(45.489502%,63.919067%,13.328552%);fill-opacity:1;"><g transform="translate(145.829527, 283.240705)"><path style="stroke:none;" d="M 3.1875 2.796875 C 2.789062 2.796875 2.488281 2.765625 2.28125 2.703125 C 2.082031 2.648438 1.921875 2.597656 1.796875 2.546875 C 1.679688 2.503906 1.578125 2.460938 1.484375 2.421875 C 1.398438 2.378906 1.316406 2.332031 1.234375 2.28125 C 0.890625 2.050781 0.757812 1.882812 0.84375 1.78125 L 1.15625 1.34375 C 1.207031 1.269531 1.273438 1.265625 1.359375 1.328125 C 1.367188 1.328125 1.394531 1.34375 1.4375 1.375 C 1.476562 1.414062 1.519531 1.453125 1.5625 1.484375 C 1.613281 1.515625 1.675781 1.550781 1.75 1.59375 C 1.820312 1.644531 1.90625 1.6875 2 1.71875 C 2.09375 1.757812 2.195312 1.796875 2.3125 1.828125 C 2.570312 1.898438 2.863281 1.9375 3.1875 1.9375 C 3.757812 1.9375 4.21875 1.796875 4.5625 1.515625 C 4.90625 1.242188 5.078125 0.8125 5.078125 0.21875 L 5.078125 -1.125 C 4.929688 -0.789062 4.691406 -0.503906 4.359375 -0.265625 C 4.035156 -0.0351562 3.628906 0.078125 3.140625 0.078125 C 2.328125 0.078125 1.675781 -0.203125 1.1875 -0.765625 C 0.695312 -1.328125 0.453125 -2.054688 0.453125 -2.953125 C 0.453125 -3.847656 0.695312 -4.570312 1.1875 -5.125 C 1.6875 -5.675781 2.335938 -5.953125 3.140625 -5.953125 C 3.628906 -5.953125 4.039062 -5.835938 4.375 -5.609375 C 4.71875 -5.378906 4.960938 -5.101562 5.109375 -4.78125 L 5.140625 -4.78125 L 5.125 -5.71875 C 5.125 -5.8125 5.171875 -5.859375 5.265625 -5.859375 L 6.671875 -5.859375 C 6.765625 -5.859375 6.8125 -5.8125 6.8125 -5.71875 L 6.8125 -5.203125 C 6.8125 -5.109375 6.765625 -5.0625 6.671875 -5.0625 L 6.03125 -5.0625 L 6.03125 0.21875 C 6.03125 1.070312 5.769531 1.710938 5.25 2.140625 C 4.726562 2.578125 4.039062 2.796875 3.1875 2.796875 Z M 1.4375 -2.9375 C 1.4375 -2.28125 1.609375 -1.75 1.953125 -1.34375 C 2.304688 -0.945312 2.742188 -0.75 3.265625 -0.75 C 3.785156 -0.75 4.21875 -0.945312 4.5625 -1.34375 C 4.914062 -1.738281 5.09375 -2.269531 5.09375 -2.9375 C 5.09375 -3.613281 4.914062 -4.144531 4.5625 -4.53125 C 4.21875 -4.914062 3.785156 -5.109375 3.265625 -5.109375 C 2.742188 -5.109375 2.304688 -4.910156 1.953125 -4.515625 C 1.609375 -4.117188 1.4375 -3.59375 1.4375 -2.9375 Z M 1.4375 -2.9375 "/></g></g><g style="fill:rgb(45.489502%,63.919067%,13.328552%);fill-opacity:1;"><g transform="translate(153.111391, 283.240705)"><path style="stroke:none;" d="M 5.546875 -0.75 C 4.992188 -0.195312 4.285156 0.078125 3.421875 0.078125 C 2.554688 0.078125 1.84375 -0.195312 1.28125 -0.75 C 0.726562 -1.300781 0.453125 -2.035156 0.453125 -2.953125 C 0.453125 -3.867188 0.734375 -4.597656 1.296875 -5.140625 C 1.859375 -5.679688 2.566406 -5.953125 3.421875 -5.953125 C 4.273438 -5.953125 4.984375 -5.675781 5.546875 -5.125 C 6.109375 -4.582031 6.390625 -3.851562 6.390625 -2.9375 C 6.390625 -2.03125 6.109375 -1.300781 5.546875 -0.75 Z M 1.453125 -2.9375 C 1.453125 -2.289062 1.640625 -1.765625 2.015625 -1.359375 C 2.398438 -0.953125 2.867188 -0.75 3.421875 -0.75 C 3.972656 -0.75 4.441406 -0.953125 4.828125 -1.359375 C 5.210938 -1.765625 5.40625 -2.289062 5.40625 -2.9375 C 5.40625 -3.59375 5.210938 -4.117188 4.828125 -4.515625 C 4.441406 -4.910156 3.976562 -5.109375 3.4375 -5.109375 C 2.894531 -5.109375 2.425781 -4.910156 2.03125 -4.515625 C 1.644531 -4.117188 1.453125 -3.59375 1.453125 -2.9375 Z M 1.453125 -2.9375 "/></g></g><g style="fill:rgb(45.489502%,63.919067%,13.328552%);fill-opacity:1;"><g transform="translate(159.964215, 283.240705)"><path style="stroke:none;" d="M 5.546875 -0.75 C 4.992188 -0.195312 4.285156 0.078125 3.421875 0.078125 C 2.554688 0.078125 1.84375 -0.195312 1.28125 -0.75 C 0.726562 -1.300781 0.453125 -2.035156 0.453125 -2.953125 C 0.453125 -3.867188 0.734375 -4.597656 1.296875 -5.140625 C 1.859375 -5.679688 2.566406 -5.953125 3.421875 -5.953125 C 4.273438 -5.953125 4.984375 -5.675781 5.546875 -5.125 C 6.109375 -4.582031 6.390625 -3.851562 6.390625 -2.9375 C 6.390625 -2.03125 6.109375 -1.300781 5.546875 -0.75 Z M 1.453125 -2.9375 C 1.453125 -2.289062 1.640625 -1.765625 2.015625 -1.359375 C 2.398438 -0.953125 2.867188 -0.75 3.421875 -0.75 C 3.972656 -0.75 4.441406 -0.953125 4.828125 -1.359375 C 5.210938 -1.765625 5.40625 -2.289062 5.40625 -2.9375 C 5.40625 -3.59375 5.210938 -4.117188 4.828125 -4.515625 C 4.441406 -4.910156 3.976562 -5.109375 3.4375 -5.109375 C 2.894531 -5.109375 2.425781 -4.910156 2.03125 -4.515625 C 1.644531 -4.117188 1.453125 -3.59375 1.453125 -2.9375 Z M 1.453125 -2.9375 "/></g></g><g style="fill:rgb(45.489502%,63.919067%,13.328552%);fill-opacity:1;"><g transform="translate(166.81704, 283.240705)"><path style="stroke:none;" d="M 6.703125 0 L 5.65625 0 C 5.476562 0 5.347656 -0.0351562 5.265625 -0.109375 C 5.179688 -0.179688 5.140625 -0.3125 5.140625 -0.5 L 5.140625 -1.171875 L 5.125 -1.171875 C 5 -0.835938 4.757812 -0.546875 4.40625 -0.296875 C 4.0625 -0.046875 3.640625 0.078125 3.140625 0.078125 C 2.335938 0.078125 1.6875 -0.195312 1.1875 -0.75 C 0.695312 -1.300781 0.453125 -2.03125 0.453125 -2.9375 C 0.453125 -3.84375 0.695312 -4.570312 1.1875 -5.125 C 1.6875 -5.675781 2.335938 -5.953125 3.140625 -5.953125 C 3.640625 -5.953125 4.050781 -5.835938 4.375 -5.609375 C 4.695312 -5.378906 4.929688 -5.101562 5.078125 -4.78125 L 5.09375 -4.78125 C 5.082031 -4.9375 5.078125 -5.066406 5.078125 -5.171875 L 5.078125 -7.765625 L 4.40625 -7.765625 C 4.300781 -7.765625 4.25 -7.8125 4.25 -7.90625 L 4.25 -8.421875 C 4.25 -8.515625 4.300781 -8.5625 4.40625 -8.5625 L 5.890625 -8.5625 C 5.984375 -8.5625 6.03125 -8.515625 6.03125 -8.421875 L 6.03125 -0.796875 L 6.703125 -0.796875 C 6.796875 -0.796875 6.84375 -0.75 6.84375 -0.65625 L 6.84375 -0.140625 C 6.84375 -0.046875 6.796875 0 6.703125 0 Z M 1.4375 -2.953125 C 1.4375 -2.296875 1.609375 -1.765625 1.953125 -1.359375 C 2.296875 -0.953125 2.734375 -0.75 3.265625 -0.75 C 3.796875 -0.75 4.234375 -0.945312 4.578125 -1.34375 C 4.921875 -1.75 5.09375 -2.285156 5.09375 -2.953125 C 5.09375 -3.617188 4.914062 -4.144531 4.5625 -4.53125 C 4.21875 -4.914062 3.785156 -5.109375 3.265625 -5.109375 C 2.742188 -5.109375 2.304688 -4.914062 1.953125 -4.53125 C 1.609375 -4.144531 1.4375 -3.617188 1.4375 -2.953125 Z M 1.4375 -2.953125 "/></g></g><g style="fill:rgb(45.489502%,63.919067%,13.328552%);fill-opacity:1;"><g transform="translate(174.110829, 283.240705)"><path style="stroke:none;" d="M 3.09375 0.078125 C 2.5625 0.078125 2.132812 -0.0195312 1.8125 -0.21875 C 1.5 -0.414062 1.304688 -0.601562 1.234375 -0.78125 L 1.203125 -0.78125 C 1.222656 -0.382812 1.234375 -0.175781 1.234375 -0.15625 C 1.234375 -0.0507812 1.175781 0 1.0625 0 L 0.65625 0 C 0.550781 0 0.5 -0.0507812 0.5 -0.15625 L 0.5 -1.9375 C 0.5 -2.039062 0.550781 -2.09375 0.65625 -2.09375 L 1.125 -2.09375 C 1.226562 -2.09375 1.28125 -2.039062 1.28125 -1.9375 L 1.28125 -1.703125 C 1.363281 -1.460938 1.53125 -1.242188 1.78125 -1.046875 C 2.082031 -0.804688 2.460938 -0.6875 2.921875 -0.6875 C 3.804688 -0.6875 4.25 -1 4.25 -1.625 C 4.25 -1.832031 4.125 -2.003906 3.875 -2.140625 C 3.632812 -2.273438 3.335938 -2.382812 2.984375 -2.46875 C 2.628906 -2.550781 2.273438 -2.648438 1.921875 -2.765625 C 1.578125 -2.878906 1.28125 -3.0625 1.03125 -3.3125 C 0.789062 -3.5625 0.671875 -3.875 0.671875 -4.25 C 0.671875 -4.769531 0.851562 -5.179688 1.21875 -5.484375 C 1.59375 -5.796875 2.070312 -5.953125 2.65625 -5.953125 C 3.445312 -5.953125 4.007812 -5.71875 4.34375 -5.25 L 4.375 -5.25 C 4.351562 -5.539062 4.34375 -5.691406 4.34375 -5.703125 C 4.34375 -5.804688 4.394531 -5.859375 4.5 -5.859375 L 4.890625 -5.859375 C 4.992188 -5.859375 5.046875 -5.804688 5.046875 -5.703125 L 5.046875 -4.046875 C 5.046875 -3.941406 4.992188 -3.890625 4.890625 -3.890625 L 4.421875 -3.890625 C 4.304688 -3.890625 4.25 -3.941406 4.25 -4.046875 L 4.25 -4.203125 C 4.25 -4.421875 4.125 -4.632812 3.875 -4.84375 C 3.625 -5.050781 3.300781 -5.15625 2.90625 -5.15625 C 2.507812 -5.15625 2.195312 -5.070312 1.96875 -4.90625 C 1.75 -4.738281 1.640625 -4.519531 1.640625 -4.25 C 1.640625 -3.988281 1.765625 -3.785156 2.015625 -3.640625 C 2.265625 -3.492188 2.566406 -3.378906 2.921875 -3.296875 C 3.285156 -3.210938 3.644531 -3.117188 4 -3.015625 C 4.363281 -2.910156 4.671875 -2.738281 4.921875 -2.5 C 5.171875 -2.257812 5.296875 -1.925781 5.296875 -1.5 C 5.296875 -1.082031 5.113281 -0.710938 4.75 -0.390625 C 4.382812 -0.078125 3.832031 0.078125 3.09375 0.078125 Z M 3.09375 0.078125 "/></g></g><g style="fill:rgb(45.489502%,63.919067%,13.328552%);fill-opacity:1;"><g transform="translate(179.902946, 283.240705)"><path style="stroke:none;" d=""/></g></g><g style="fill:rgb(45.489502%,63.919067%,13.328552%);fill-opacity:1;"><g transform="translate(183.633262, 283.240705)"><path style="stroke:none;" d="M 6.3125 0 L 5.265625 0 C 4.921875 0 4.75 -0.164062 4.75 -0.5 L 4.75 -1.109375 L 4.734375 -1.109375 C 4.148438 -0.304688 3.375 0.09375 2.40625 0.09375 C 1.832031 0.09375 1.363281 -0.0507812 1 -0.34375 C 0.632812 -0.644531 0.453125 -1.050781 0.453125 -1.5625 C 0.453125 -2.21875 0.734375 -2.695312 1.296875 -3 C 1.867188 -3.300781 2.648438 -3.453125 3.640625 -3.453125 L 4.65625 -3.453125 L 4.65625 -3.59375 C 4.65625 -4.59375 4.132812 -5.09375 3.09375 -5.09375 C 2.613281 -5.09375 2.265625 -5.046875 2.046875 -4.953125 C 1.835938 -4.859375 1.6875 -4.785156 1.59375 -4.734375 C 1.5 -4.679688 1.429688 -4.640625 1.390625 -4.609375 C 1.265625 -4.503906 1.175781 -4.492188 1.125 -4.578125 L 0.78125 -5 C 0.726562 -5.0625 0.738281 -5.125 0.8125 -5.1875 C 0.945312 -5.363281 1.222656 -5.535156 1.640625 -5.703125 C 2.066406 -5.867188 2.566406 -5.953125 3.140625 -5.953125 C 4.804688 -5.953125 5.640625 -5.15625 5.640625 -3.5625 L 5.640625 -0.796875 L 6.3125 -0.796875 C 6.40625 -0.796875 6.453125 -0.75 6.453125 -0.65625 L 6.453125 -0.140625 C 6.453125 -0.046875 6.40625 0 6.3125 0 Z M 4.65625 -2.734375 L 3.703125 -2.734375 C 3.242188 -2.734375 2.863281 -2.707031 2.5625 -2.65625 C 2.257812 -2.613281 2.003906 -2.515625 1.796875 -2.359375 C 1.585938 -2.203125 1.484375 -1.984375 1.484375 -1.703125 C 1.484375 -1.421875 1.59375 -1.191406 1.8125 -1.015625 C 2.039062 -0.835938 2.335938 -0.75 2.703125 -0.75 C 3.472656 -0.75 4.125 -1.09375 4.65625 -1.78125 Z M 4.65625 -2.734375 "/></g></g><g style="fill:rgb(45.489502%,63.919067%,13.328552%);fill-opacity:1;"><g transform="translate(190.545676, 283.240705)"><path style="stroke:none;" d="M 6.796875 0 L 5.65625 0 C 5.320312 0 5.15625 -0.164062 5.15625 -0.5 L 5.15625 -3.640625 C 5.15625 -4.097656 5.039062 -4.453125 4.8125 -4.703125 C 4.59375 -4.960938 4.269531 -5.09375 3.84375 -5.09375 C 3.226562 -5.09375 2.75 -4.84375 2.40625 -4.34375 C 2.363281 -4.289062 2.3125 -4.203125 2.25 -4.078125 L 2.25 -0.796875 L 2.890625 -0.796875 C 2.992188 -0.796875 3.046875 -0.75 3.046875 -0.65625 L 3.046875 -0.140625 C 3.046875 -0.046875 2.992188 0 2.890625 0 L 0.609375 0 C 0.503906 0 0.453125 -0.046875 0.453125 -0.140625 L 0.453125 -0.65625 C 0.453125 -0.75 0.503906 -0.796875 0.609375 -0.796875 L 1.265625 -0.796875 L 1.265625 -5.0625 L 0.609375 -5.0625 C 0.503906 -5.0625 0.453125 -5.109375 0.453125 -5.203125 L 0.453125 -5.71875 C 0.453125 -5.8125 0.503906 -5.859375 0.609375 -5.859375 L 2 -5.859375 C 2.101562 -5.859375 2.15625 -5.8125 2.15625 -5.71875 L 2.140625 -4.90625 L 2.171875 -4.90625 C 2.585938 -5.601562 3.226562 -5.953125 4.09375 -5.953125 C 4.726562 -5.953125 5.222656 -5.765625 5.578125 -5.390625 C 5.929688 -5.015625 6.113281 -4.507812 6.125 -3.875 L 6.125 -0.796875 L 6.796875 -0.796875 C 6.898438 -0.796875 6.953125 -0.75 6.953125 -0.65625 L 6.953125 -0.140625 C 6.953125 -0.046875 6.898438 0 6.796875 0 Z M 6.796875 0 "/></g></g><g style="fill:rgb(45.489502%,63.919067%,13.328552%);fill-opacity:1;"><g transform="translate(197.946719, 283.240705)"><path style="stroke:none;" d="M 6.703125 0 L 5.65625 0 C 5.476562 0 5.347656 -0.0351562 5.265625 -0.109375 C 5.179688 -0.179688 5.140625 -0.3125 5.140625 -0.5 L 5.140625 -1.171875 L 5.125 -1.171875 C 5 -0.835938 4.757812 -0.546875 4.40625 -0.296875 C 4.0625 -0.046875 3.640625 0.078125 3.140625 0.078125 C 2.335938 0.078125 1.6875 -0.195312 1.1875 -0.75 C 0.695312 -1.300781 0.453125 -2.03125 0.453125 -2.9375 C 0.453125 -3.84375 0.695312 -4.570312 1.1875 -5.125 C 1.6875 -5.675781 2.335938 -5.953125 3.140625 -5.953125 C 3.640625 -5.953125 4.050781 -5.835938 4.375 -5.609375 C 4.695312 -5.378906 4.929688 -5.101562 5.078125 -4.78125 L 5.09375 -4.78125 C 5.082031 -4.9375 5.078125 -5.066406 5.078125 -5.171875 L 5.078125 -7.765625 L 4.40625 -7.765625 C 4.300781 -7.765625 4.25 -7.8125 4.25 -7.90625 L 4.25 -8.421875 C 4.25 -8.515625 4.300781 -8.5625 4.40625 -8.5625 L 5.890625 -8.5625 C 5.984375 -8.5625 6.03125 -8.515625 6.03125 -8.421875 L 6.03125 -0.796875 L 6.703125 -0.796875 C 6.796875 -0.796875 6.84375 -0.75 6.84375 -0.65625 L 6.84375 -0.140625 C 6.84375 -0.046875 6.796875 0 6.703125 0 Z M 1.4375 -2.953125 C 1.4375 -2.296875 1.609375 -1.765625 1.953125 -1.359375 C 2.296875 -0.953125 2.734375 -0.75 3.265625 -0.75 C 3.796875 -0.75 4.234375 -0.945312 4.578125 -1.34375 C 4.921875 -1.75 5.09375 -2.285156 5.09375 -2.953125 C 5.09375 -3.617188 4.914062 -4.144531 4.5625 -4.53125 C 4.21875 -4.914062 3.785156 -5.109375 3.265625 -5.109375 C 2.742188 -5.109375 2.304688 -4.914062 1.953125 -4.53125 C 1.609375 -4.144531 1.4375 -3.617188 1.4375 -2.953125 Z M 1.4375 -2.953125 "/></g></g><g style="fill:rgb(45.489502%,63.919067%,13.328552%);fill-opacity:1;"><g transform="translate(205.240507, 283.240705)"><path style="stroke:none;" d=""/></g></g><g style="fill:rgb(45.489502%,63.919067%,13.328552%);fill-opacity:1;"><g transform="translate(208.970823, 283.240705)"><path style="stroke:none;" d="M 5.890625 -1.390625 C 5.941406 -1.347656 5.96875 -1.304688 5.96875 -1.265625 C 5.96875 -1.234375 5.945312 -1.1875 5.90625 -1.125 C 5.875 -1.0625 5.800781 -0.96875 5.6875 -0.84375 C 5.570312 -0.726562 5.410156 -0.59375 5.203125 -0.4375 C 5.003906 -0.289062 4.742188 -0.164062 4.421875 -0.0625 C 4.097656 0.03125 3.753906 0.078125 3.390625 0.078125 C 2.554688 0.078125 1.859375 -0.191406 1.296875 -0.734375 C 0.734375 -1.285156 0.453125 -2.023438 0.453125 -2.953125 C 0.453125 -3.878906 0.734375 -4.609375 1.296875 -5.140625 C 1.859375 -5.679688 2.539062 -5.953125 3.34375 -5.953125 C 4.15625 -5.953125 4.769531 -5.65625 5.1875 -5.0625 L 5.203125 -5.0625 L 5.1875 -5.71875 C 5.1875 -5.820312 5.238281 -5.875 5.34375 -5.875 L 5.796875 -5.875 C 5.890625 -5.875 5.9375 -5.820312 5.9375 -5.71875 L 5.9375 -3.703125 C 5.9375 -3.597656 5.890625 -3.546875 5.796875 -3.546875 L 5.25 -3.546875 C 5.15625 -3.546875 5.109375 -3.597656 5.109375 -3.703125 L 5.109375 -3.90625 C 5.097656 -4.1875 4.929688 -4.457031 4.609375 -4.71875 C 4.296875 -4.976562 3.894531 -5.109375 3.40625 -5.109375 C 2.914062 -5.109375 2.46875 -4.914062 2.0625 -4.53125 C 1.65625 -4.144531 1.453125 -3.613281 1.453125 -2.9375 C 1.453125 -2.269531 1.648438 -1.738281 2.046875 -1.34375 C 2.441406 -0.945312 2.882812 -0.75 3.375 -0.75 C 3.875 -0.75 4.296875 -0.851562 4.640625 -1.0625 C 4.984375 -1.28125 5.21875 -1.488281 5.34375 -1.6875 C 5.394531 -1.78125 5.460938 -1.789062 5.546875 -1.71875 Z M 5.890625 -1.390625 "/></g></g><g style="fill:rgb(45.489502%,63.919067%,13.328552%);fill-opacity:1;"><g transform="translate(215.394597, 283.240705)"><path style="stroke:none;" d="M 2.890625 0 L 0.609375 0 C 0.503906 0 0.453125 -0.046875 0.453125 -0.140625 L 0.453125 -0.65625 C 0.453125 -0.75 0.503906 -0.796875 0.609375 -0.796875 L 1.265625 -0.796875 L 1.265625 -7.765625 L 0.609375 -7.765625 C 0.503906 -7.765625 0.453125 -7.8125 0.453125 -7.90625 L 0.453125 -8.421875 C 0.453125 -8.515625 0.503906 -8.5625 0.609375 -8.5625 L 1.9375 -8.5625 C 2.144531 -8.5625 2.25 -8.460938 2.25 -8.265625 L 2.25 -0.796875 L 2.890625 -0.796875 C 2.992188 -0.796875 3.046875 -0.75 3.046875 -0.65625 L 3.046875 -0.140625 C 3.046875 -0.046875 2.992188 0 2.890625 0 Z M 2.890625 0 "/></g></g><g style="fill:rgb(45.489502%,63.919067%,13.328552%);fill-opacity:1;"><g transform="translate(218.886556, 283.240705)"><path style="stroke:none;" d="M 5.546875 -0.75 C 4.992188 -0.195312 4.285156 0.078125 3.421875 0.078125 C 2.554688 0.078125 1.84375 -0.195312 1.28125 -0.75 C 0.726562 -1.300781 0.453125 -2.035156 0.453125 -2.953125 C 0.453125 -3.867188 0.734375 -4.597656 1.296875 -5.140625 C 1.859375 -5.679688 2.566406 -5.953125 3.421875 -5.953125 C 4.273438 -5.953125 4.984375 -5.675781 5.546875 -5.125 C 6.109375 -4.582031 6.390625 -3.851562 6.390625 -2.9375 C 6.390625 -2.03125 6.109375 -1.300781 5.546875 -0.75 Z M 1.453125 -2.9375 C 1.453125 -2.289062 1.640625 -1.765625 2.015625 -1.359375 C 2.398438 -0.953125 2.867188 -0.75 3.421875 -0.75 C 3.972656 -0.75 4.441406 -0.953125 4.828125 -1.359375 C 5.210938 -1.765625 5.40625 -2.289062 5.40625 -2.9375 C 5.40625 -3.59375 5.210938 -4.117188 4.828125 -4.515625 C 4.441406 -4.910156 3.976562 -5.109375 3.4375 -5.109375 C 2.894531 -5.109375 2.425781 -4.910156 2.03125 -4.515625 C 1.644531 -4.117188 1.453125 -3.59375 1.453125 -2.9375 Z M 1.453125 -2.9375 "/></g></g><g style="fill:rgb(45.489502%,63.919067%,13.328552%);fill-opacity:1;"><g transform="translate(225.73938, 283.240705)"><path style="stroke:none;" d="M 4.4375 -0.609375 C 4.46875 -0.578125 4.484375 -0.539062 4.484375 -0.5 C 4.484375 -0.46875 4.457031 -0.425781 4.40625 -0.375 C 4.0625 -0.0703125 3.625 0.078125 3.09375 0.078125 C 2.5625 0.078125 2.125 -0.09375 1.78125 -0.4375 C 1.445312 -0.78125 1.28125 -1.28125 1.28125 -1.9375 L 1.28125 -5.0625 L 0.625 -5.0625 C 0.507812 -5.0625 0.453125 -5.113281 0.453125 -5.21875 L 0.453125 -5.703125 C 0.453125 -5.804688 0.507812 -5.859375 0.625 -5.859375 L 1.28125 -5.859375 L 1.28125 -7.0625 C 1.28125 -7.175781 1.335938 -7.234375 1.453125 -7.234375 L 2.125 -7.234375 C 2.226562 -7.234375 2.28125 -7.175781 2.28125 -7.0625 L 2.28125 -5.859375 L 3.796875 -5.859375 C 3.898438 -5.859375 3.953125 -5.804688 3.953125 -5.703125 L 3.953125 -5.21875 C 3.953125 -5.113281 3.898438 -5.0625 3.796875 -5.0625 L 2.28125 -5.0625 L 2.28125 -1.96875 C 2.28125 -1.570312 2.367188 -1.269531 2.546875 -1.0625 C 2.722656 -0.863281 2.957031 -0.765625 3.25 -0.765625 C 3.550781 -0.765625 3.78125 -0.835938 3.9375 -0.984375 C 4.007812 -1.054688 4.082031 -1.054688 4.15625 -0.984375 Z M 4.4375 -0.609375 "/></g></g><g style="fill:rgb(45.489502%,63.919067%,13.328552%);fill-opacity:1;"><g transform="translate(230.518479, 283.240705)"><path style="stroke:none;" d="M 6.796875 0 L 5.65625 0 C 5.320312 0 5.15625 -0.164062 5.15625 -0.5 L 5.15625 -3.640625 C 5.15625 -4.097656 5.039062 -4.453125 4.8125 -4.703125 C 4.59375 -4.960938 4.269531 -5.09375 3.84375 -5.09375 C 3.507812 -5.09375 3.257812 -5.039062 3.09375 -4.9375 C 2.925781 -4.84375 2.796875 -4.753906 2.703125 -4.671875 C 2.617188 -4.597656 2.546875 -4.523438 2.484375 -4.453125 C 2.390625 -4.328125 2.3125 -4.195312 2.25 -4.0625 L 2.25 -0.796875 L 2.890625 -0.796875 C 2.992188 -0.796875 3.046875 -0.75 3.046875 -0.65625 L 3.046875 -0.140625 C 3.046875 -0.046875 2.992188 0 2.890625 0 L 0.609375 0 C 0.503906 0 0.453125 -0.046875 0.453125 -0.140625 L 0.453125 -0.65625 C 0.453125 -0.75 0.503906 -0.796875 0.609375 -0.796875 L 1.265625 -0.796875 L 1.265625 -7.765625 L 0.609375 -7.765625 C 0.503906 -7.765625 0.453125 -7.8125 0.453125 -7.90625 L 0.453125 -8.421875 C 0.453125 -8.515625 0.503906 -8.5625 0.609375 -8.5625 L 2.109375 -8.5625 C 2.203125 -8.5625 2.25 -8.515625 2.25 -8.421875 L 2.25 -5.765625 C 2.25 -5.492188 2.234375 -5.25 2.203125 -5.03125 L 2.234375 -5.03125 C 2.617188 -5.644531 3.238281 -5.953125 4.09375 -5.953125 C 4.726562 -5.953125 5.222656 -5.765625 5.578125 -5.390625 C 5.929688 -5.015625 6.113281 -4.507812 6.125 -3.875 L 6.125 -0.796875 L 6.796875 -0.796875 C 6.898438 -0.796875 6.953125 -0.75 6.953125 -0.65625 L 6.953125 -0.140625 C 6.953125 -0.046875 6.898438 0 6.796875 0 Z M 6.796875 0 "/></g></g><g style="fill:rgb(45.489502%,63.919067%,13.328552%);fill-opacity:1;"><g transform="translate(237.919521, 283.240705)"><path style="stroke:none;" d="M 2.890625 0 L 0.609375 0 C 0.503906 0 0.453125 -0.046875 0.453125 -0.140625 L 0.453125 -0.65625 C 0.453125 -0.75 0.503906 -0.796875 0.609375 -0.796875 L 1.265625 -0.796875 L 1.265625 -5.0625 L 0.609375 -5.0625 C 0.503906 -5.0625 0.453125 -5.109375 0.453125 -5.203125 L 0.453125 -5.71875 C 0.453125 -5.8125 0.503906 -5.859375 0.609375 -5.859375 L 2.109375 -5.859375 C 2.203125 -5.859375 2.25 -5.8125 2.25 -5.71875 L 2.25 -0.796875 L 2.890625 -0.796875 C 2.992188 -0.796875 3.046875 -0.75 3.046875 -0.65625 L 3.046875 -0.140625 C 3.046875 -0.046875 2.992188 0 2.890625 0 Z M 2.203125 -7.625 C 2.335938 -7.488281 2.40625 -7.328125 2.40625 -7.140625 C 2.40625 -6.960938 2.335938 -6.8125 2.203125 -6.6875 C 2.078125 -6.5625 1.921875 -6.5 1.734375 -6.5 C 1.554688 -6.5 1.398438 -6.5625 1.265625 -6.6875 C 1.140625 -6.8125 1.078125 -6.960938 1.078125 -7.140625 C 1.078125 -7.328125 1.140625 -7.488281 1.265625 -7.625 C 1.398438 -7.757812 1.554688 -7.828125 1.734375 -7.828125 C 1.921875 -7.828125 2.078125 -7.757812 2.203125 -7.625 Z M 2.203125 -7.625 "/></g></g><g style="fill:rgb(45.489502%,63.919067%,13.328552%);fill-opacity:1;"><g transform="translate(241.411479, 283.240705)"><path style="stroke:none;" d="M 6.796875 0 L 5.65625 0 C 5.320312 0 5.15625 -0.164062 5.15625 -0.5 L 5.15625 -3.640625 C 5.15625 -4.097656 5.039062 -4.453125 4.8125 -4.703125 C 4.59375 -4.960938 4.269531 -5.09375 3.84375 -5.09375 C 3.226562 -5.09375 2.75 -4.84375 2.40625 -4.34375 C 2.363281 -4.289062 2.3125 -4.203125 2.25 -4.078125 L 2.25 -0.796875 L 2.890625 -0.796875 C 2.992188 -0.796875 3.046875 -0.75 3.046875 -0.65625 L 3.046875 -0.140625 C 3.046875 -0.046875 2.992188 0 2.890625 0 L 0.609375 0 C 0.503906 0 0.453125 -0.046875 0.453125 -0.140625 L 0.453125 -0.65625 C 0.453125 -0.75 0.503906 -0.796875 0.609375 -0.796875 L 1.265625 -0.796875 L 1.265625 -5.0625 L 0.609375 -5.0625 C 0.503906 -5.0625 0.453125 -5.109375 0.453125 -5.203125 L 0.453125 -5.71875 C 0.453125 -5.8125 0.503906 -5.859375 0.609375 -5.859375 L 2 -5.859375 C 2.101562 -5.859375 2.15625 -5.8125 2.15625 -5.71875 L 2.140625 -4.90625 L 2.171875 -4.90625 C 2.585938 -5.601562 3.226562 -5.953125 4.09375 -5.953125 C 4.726562 -5.953125 5.222656 -5.765625 5.578125 -5.390625 C 5.929688 -5.015625 6.113281 -4.507812 6.125 -3.875 L 6.125 -0.796875 L 6.796875 -0.796875 C 6.898438 -0.796875 6.953125 -0.75 6.953125 -0.65625 L 6.953125 -0.140625 C 6.953125 -0.046875 6.898438 0 6.796875 0 Z M 6.796875 0 "/></g></g><g style="fill:rgb(45.489502%,63.919067%,13.328552%);fill-opacity:1;"><g transform="translate(248.812522, 283.240705)"><path style="stroke:none;" d="M 3.1875 2.796875 C 2.789062 2.796875 2.488281 2.765625 2.28125 2.703125 C 2.082031 2.648438 1.921875 2.597656 1.796875 2.546875 C 1.679688 2.503906 1.578125 2.460938 1.484375 2.421875 C 1.398438 2.378906 1.316406 2.332031 1.234375 2.28125 C 0.890625 2.050781 0.757812 1.882812 0.84375 1.78125 L 1.15625 1.34375 C 1.207031 1.269531 1.273438 1.265625 1.359375 1.328125 C 1.367188 1.328125 1.394531 1.34375 1.4375 1.375 C 1.476562 1.414062 1.519531 1.453125 1.5625 1.484375 C 1.613281 1.515625 1.675781 1.550781 1.75 1.59375 C 1.820312 1.644531 1.90625 1.6875 2 1.71875 C 2.09375 1.757812 2.195312 1.796875 2.3125 1.828125 C 2.570312 1.898438 2.863281 1.9375 3.1875 1.9375 C 3.757812 1.9375 4.21875 1.796875 4.5625 1.515625 C 4.90625 1.242188 5.078125 0.8125 5.078125 0.21875 L 5.078125 -1.125 C 4.929688 -0.789062 4.691406 -0.503906 4.359375 -0.265625 C 4.035156 -0.0351562 3.628906 0.078125 3.140625 0.078125 C 2.328125 0.078125 1.675781 -0.203125 1.1875 -0.765625 C 0.695312 -1.328125 0.453125 -2.054688 0.453125 -2.953125 C 0.453125 -3.847656 0.695312 -4.570312 1.1875 -5.125 C 1.6875 -5.675781 2.335938 -5.953125 3.140625 -5.953125 C 3.628906 -5.953125 4.039062 -5.835938 4.375 -5.609375 C 4.71875 -5.378906 4.960938 -5.101562 5.109375 -4.78125 L 5.140625 -4.78125 L 5.125 -5.71875 C 5.125 -5.8125 5.171875 -5.859375 5.265625 -5.859375 L 6.671875 -5.859375 C 6.765625 -5.859375 6.8125 -5.8125 6.8125 -5.71875 L 6.8125 -5.203125 C 6.8125 -5.109375 6.765625 -5.0625 6.671875 -5.0625 L 6.03125 -5.0625 L 6.03125 0.21875 C 6.03125 1.070312 5.769531 1.710938 5.25 2.140625 C 4.726562 2.578125 4.039062 2.796875 3.1875 2.796875 Z M 1.4375 -2.9375 C 1.4375 -2.28125 1.609375 -1.75 1.953125 -1.34375 C 2.304688 -0.945312 2.742188 -0.75 3.265625 -0.75 C 3.785156 -0.75 4.21875 -0.945312 4.5625 -1.34375 C 4.914062 -1.738281 5.09375 -2.269531 5.09375 -2.9375 C 5.09375 -3.613281 4.914062 -4.144531 4.5625 -4.53125 C 4.21875 -4.914062 3.785156 -5.109375 3.265625 -5.109375 C 2.742188 -5.109375 2.304688 -4.910156 1.953125 -4.515625 C 1.609375 -4.117188 1.4375 -3.59375 1.4375 -2.9375 Z M 1.4375 -2.9375 "/></g></g><g clip-rule="nonzero" clip-path="url(#clip1)"><g clip-rule="nonzero" clip-path="url(#clip2)"><g clip-rule="nonzero" clip-path="url(#clip3)"><path style=" stroke:none;fill-rule:nonzero;fill:rgb(45.489502%,63.919067%,13.328552%);fill-opacity:1;" d="M 212.75 120.117188 C 220.535156 117.667969 225.078125 106.144531 223.390625 107.179688 C 225.078125 106.144531 212.503906 104.5625 206.789062 110.386719 C 207.441406 107.667969 207.335938 96.125 200.964844 104.671875 C 194.59375 113.214844 195.628906 114.902344 194.972656 117.625 C 194.320312 120.347656 199.765625 121.652344 199.765625 121.652344 C 199.765625 121.652344 198.273438 126.800781 200.996094 127.453125 C 203.71875 128.109375 204.570312 129.5 215.074219 127.707031 C 225.582031 125.910156 215.46875 120.773438 212.75 120.117188 Z M 212.75 120.117188 "/></g></g></g><g clip-rule="nonzero" clip-path="url(#clip4)"><g clip-rule="nonzero" clip-path="url(#clip5)"><g clip-rule="nonzero" clip-path="url(#clip6)"><path style=" stroke:none;fill-rule:nonzero;fill:rgb(96.469116%,56.858826%,30.198669%);fill-opacity:1;" d="M 189.277344 144.320312 C 171.101562 155.457031 144.449219 160.175781 141.863281 155.957031 C 139.28125 151.738281 155.597656 130.140625 173.769531 119.003906 C 191.945312 107.871094 199.457031 109.785156 204.308594 117.707031 C 209.160156 125.628906 207.453125 133.1875 189.277344 144.320312 Z M 189.277344 144.320312 "/></g></g></g><g clip-rule="nonzero" clip-path="url(#clip7)"><g clip-rule="nonzero" clip-path="url(#clip8)"><g clip-rule="nonzero" clip-path="url(#clip9)"><path style=" stroke:none;fill-rule:nonzero;fill:rgb(100%,100%,100%);fill-opacity:1;" d="M 192.402344 126.683594 C 190.980469 124.363281 188.359375 120.042969 186.195312 112.765625 C 184.519531 113.363281 182.703125 114.144531 180.726562 115.128906 C 184.449219 123.378906 193.894531 129.117188 192.402344 126.683594 Z M 174.265625 138.757812 C 172.746094 136.273438 169.847656 131.488281 167.609375 123.222656 C 165.902344 124.503906 164.230469 125.855469 162.609375 127.253906 C 166.347656 135.472656 175.753906 141.183594 174.265625 138.757812 Z M 192.328125 142.382812 C 186.363281 136.863281 183.570312 132.320312 182.089844 129.90625 C 180.601562 127.46875 181.425781 138.53125 187.109375 145.59375 C 187.839844 145.175781 191.363281 143.015625 192.328125 142.382812 Z M 164.570312 154.691406 C 166.519531 154.160156 168.515625 153.554688 170.535156 152.875 C 165.117188 147.695312 162.484375 143.441406 161.070312 141.140625 C 159.722656 138.9375 160.265625 147.757812 164.570312 154.691406 Z M 164.570312 154.691406 "/></g></g></g></g></svg>